<svg id="Layer_1" data-name="Layer 1" xmlns="http://www.w3.org/2000/svg" width="905.33" height="505.92" viewBox="0 0 905.33 505.92"><defs><style>.cls-1{fill:#0060ff;}.cls-1,.cls-2,.cls-3,.cls-4,.cls-5,.cls-6,.cls-7,.cls-8{stroke:#000;stroke-miterlimit:10;}.cls-2{fill:#f33;}.cls-3{fill:#f60;}.cls-4{fill:#0c0;}.cls-5{fill:#ff0;}.cls-6{fill:#039;}.cls-8{fill:#909;}.cls-9{fill:#fff;}</style></defs><title>lego</title><g id="colors"><rect class="cls-1" x="0.5" y="478.42" width="100" height="27" rx="12"/><rect class="cls-2" x="115.67" y="478.42" width="100" height="27" rx="12"/><rect class="cls-3" x="230.84" y="478.42" width="100" height="27" rx="12"/><rect class="cls-4" x="344.39" y="478.42" width="100" height="27" rx="12"/><rect class="cls-5" x="459.38" y="478.42" width="100" height="27" rx="12"/><rect class="cls-6" x="574.93" y="478.42" width="100" height="27" rx="12"/><rect class="cls-7" x="688.28" y="478.42" width="100" height="27" rx="12"/><rect class="cls-8" x="804.83" y="478.42" width="100" height="27" rx="12"/></g><g id="drawing"><path class="cls-9" d="M834.9,29.33h14.24q0,215.93,0,432H195.9a6.19,6.19,0,0,1,1.11-.89c10-4.59,12.4-8.75,10.18-19.51-4-19.32-8.49-38.52-12.39-57.85-3.5-17.32-3.93-34.48,4.49-50.85a14.2,14.2,0,0,0,1.9-7.15c-.42-5.1.49-9.18,4.83-12.41,1.35-1,2-3.15,2.61-4.89,1.05-2.8,1.67-5.77,2.79-8.54,8-19.71,22.23-32.61,42.29-39.62,6.13-2.14,11.68-5.94,17.5-9a23,23,0,0,1,2.65-1.26c5.95-2.22,12.17-3.88,17.82-6.7A130.8,130.8,0,0,1,333.77,230c6.75-.86,13.57-1.13,20.22-1.66-2.48,9.32-4.66,18-7.15,26.6a11.55,11.55,0,0,1-3.34,5.4C336.68,266,332,272.9,331.66,282a184.66,184.66,0,0,0,.06,20.24,17.2,17.2,0,0,0,3.15,8.52c3,4.15,8.58,5.27,13.54,3.62,5.47-1.81,7.17-6.11,7.61-11.3.6-7.29,5.88-11.09,12-9.19,0,5.37-.26,10.61.06,15.81.51,8.27,6.54,12.33,14.61,10.19l4.29-1.18c0,1.79,0,3.16,0,4.53q-.72,25.66-1.46,51.33c-.34,11.24-.47,22.5-1.2,33.71-.76,11.56-2.34,23.06-3.19,34.61-.6,8.23,3.22,11.9,11.54,11.91,20.49,0,41,.09,61.49-.09,3.68,0,7.35-1.2,11.46-1.92,2.31.55,5.36,1.89,8.43,1.91,21.37.18,42.74.11,64.12.08,7.3,0,11-3.84,10.95-11.14,0-1.74-.23-3.49-.33-5.23-.4-6.77-.79-13.54-1.23-21,4,1.88,7.32,3.28,10.49,5q22.5,11.88,44.91,23.92c4.86,2.62,9.88,4.49,15.39,3.25,3.89-.89,7.4-1.81,11.08.9,1.29.95,3.71.91,5.46.56a76.53,76.53,0,0,0,13-3.38c31.58-12.29,60.12-29.84,86.47-51,10.7-8.6,21.39-17.25,31.62-26.4,8.51-7.63,8.43-14.47.88-23-.58-.65-1.13-1.33-1.68-2-4.07-4.91-9.05-6.6-15.05-4.42a122.8,122.8,0,0,0-12.89,5.93C721.51,354.48,706,362.94,690,370.16c-14.2,6.4-29.15,10.65-45.11,8.19-6-.93-11.95-1.18-17.33,2.55-4-3.71-8.6-4.86-13.81-5.3A197.18,197.18,0,0,1,587.91,372c-14.64-3.19-27.5-10-36.89-22-3.09-4-6.14-8.53-7.23-13.28-1.24-5.45-.28-11.4-.28-17.31l2.73.87c9.61,3.06,16.22-1.91,15.78-11.94-.17-3.61-.54-7.22-.81-10.83-.25-3.27,1.72-4.81,4.85-3.81A10.42,10.42,0,0,1,573,302.8a14.15,14.15,0,0,0,1.1,5,11.84,11.84,0,0,0,11.85,6.84c5.65-.7,10.39-4.64,11.13-10.54,1-7.9,1.16-15.91,1.64-23.87a6.34,6.34,0,0,0-.3-2.57c-2.85-7.33-6.9-13.77-13.43-18.5-1.32-1-1.93-2.89-3.19-4.88a13.24,13.24,0,0,1,2.21,0c17,4.82,34.19,9.35,51.1,14.63,8,2.49,15.46,4,22.7-1.07,7.41,5.1,12.72,5.07,20.19.14,3.75-2.47,7.37-5.23,11.38-7.18,17.52-8.5,35-17,52.78-25,14.42-6.53,28.86-13.12,44.46-16.66a25.12,25.12,0,0,0,17.11-12.92,5.32,5.32,0,0,1,2.8-2.11c5.9-2,9.88-6.06,12.67-11.53,9.38-18.32,14.47-38,18-58.09,4.77-27.54,6.38-55.32,6-83.24C843,43,841.64,35.14,834.9,29.33Z" transform="translate(-12.78 -29.33)"/><path d="M834.9,29.33c6.74,5.81,8.14,13.63,8.25,21.94.38,27.92-1.23,55.7-6,83.24-3.49,20.12-8.58,39.77-18,58.09-2.79,5.47-6.77,9.49-12.67,11.53a5.32,5.32,0,0,0-2.8,2.11,25.12,25.12,0,0,1-17.11,12.92c-15.6,3.54-30,10.13-44.46,16.66-17.74,8-35.26,16.53-52.78,25-4,1.95-7.63,4.71-11.38,7.18-7.47,4.93-12.78,5-20.19-.14-7.24,5-14.71,3.56-22.7,1.07-16.91-5.28-34.05-9.81-51.1-14.63a13.24,13.24,0,0,0-2.21,0c1.26,2,1.87,3.92,3.19,4.88,6.53,4.73,10.58,11.17,13.43,18.5a6.34,6.34,0,0,1,.3,2.57c-.48,8-.66,16-1.64,23.87-.74,5.9-5.48,9.84-11.13,10.54a11.84,11.84,0,0,1-11.85-6.84,14.15,14.15,0,0,1-1.1-5,10.42,10.42,0,0,0-6.93-9.13c-3.13-1-5.1.54-4.85,3.81.27,3.61.64,7.22.81,10.83.44,10-6.17,15-15.78,11.94l-2.73-.87c0,5.91-1,11.86.28,17.31,1.09,4.75,4.14,9.33,7.23,13.28,9.39,12,22.25,18.82,36.89,22a197.18,197.18,0,0,0,25.86,3.62c5.21.44,9.81,1.59,13.81,5.3,5.38-3.73,11.29-3.48,17.33-2.55,16,2.46,30.91-1.79,45.11-8.19,16-7.22,31.49-15.68,47.23-23.54a122.8,122.8,0,0,1,12.89-5.93c6-2.18,11-.49,15.05,4.42.55.67,1.1,1.35,1.68,2,7.55,8.56,7.63,15.4-.88,23-10.23,9.15-20.92,17.8-31.62,26.4-26.35,21.18-54.89,38.73-86.47,51a76.53,76.53,0,0,1-13,3.38c-1.75.35-4.17.39-5.46-.56-3.68-2.71-7.19-1.79-11.08-.9-5.51,1.24-10.53-.63-15.39-3.25q-22.4-12.08-44.91-23.92c-3.17-1.68-6.48-3.08-10.49-5,.44,7.5.83,14.27,1.23,21,.1,1.74.31,3.49.33,5.23.09,7.3-3.65,11.13-10.95,11.14-21.38,0-42.75.1-64.12-.08-3.07,0-6.12-1.36-8.43-1.91-4.11.72-7.78,1.89-11.46,1.92-20.5.18-41,.09-61.49.09-8.32,0-12.14-3.68-11.54-11.91.85-11.55,2.43-23.05,3.19-34.61.73-11.21.86-22.47,1.2-33.71q.76-25.67,1.46-51.33c0-1.37,0-2.74,0-4.53l-4.29,1.18c-8.07,2.14-14.1-1.92-14.61-10.19-.32-5.2-.06-10.44-.06-15.81-6.14-1.9-11.42,1.9-12,9.19-.44,5.19-2.14,9.49-7.61,11.3-5,1.65-10.55.53-13.54-3.62a17.2,17.2,0,0,1-3.15-8.52,184.66,184.66,0,0,1-.06-20.24c.38-9.08,5-16,11.84-21.68a11.55,11.55,0,0,0,3.34-5.4c2.49-8.6,4.67-17.28,7.15-26.6-6.65.53-13.47.8-20.22,1.66a130.8,130.8,0,0,0-42.09,12.72c-5.65,2.82-11.87,4.48-17.82,6.7a23,23,0,0,0-2.65,1.26c-5.82,3-11.37,6.84-17.5,9-20.06,7-34.31,19.91-42.29,39.62-1.12,2.77-1.74,5.74-2.79,8.54-.65,1.74-1.26,3.89-2.61,4.89-4.34,3.23-5.25,7.31-4.83,12.41a14.2,14.2,0,0,1-1.9,7.15c-8.42,16.37-8,33.53-4.49,50.85,3.9,19.33,8.41,38.53,12.39,57.85,2.22,10.76-.18,14.92-10.18,19.51a6.19,6.19,0,0,0-1.11.89H177.15c-1.9-2.45-4.2-4.69-5.63-7.39-15-28.4-28.56-57.45-37.06-88.6a224,224,0,0,1-8.24-51.29c-.23-6.7,1.54-12.84,6.37-17.85a3.9,3.9,0,0,0,1.09-2.6c-.51-8.8,3.77-15.36,9.87-20.94,7.82-7.17,15.84-14.12,23.77-21.18,19.13-17,38-34.33,53.36-55,4.5-6,10.24-10.21,18.37-9.67a2.82,2.82,0,0,0,2.08-1.09c3.53-5.14,8.9-6,14.49-6.39,20.68-1.28,41.44-1.81,62-4,14.32-1.55,28.57-4.75,42.5-8.5,10.7-2.88,20.51-4.45,29.36,3.34l8.55-3.61c-5.75-7-11.45-14.06-17.27-21-11.55-13.84-25.38-24.77-42.13-31.59-6.78-2.76-13.55-5.17-17.63-12-5.82,2.55-11.13,1-16.33-1.47-.57-.27-1.17-.47-1.7-.78C288.49,91,272.68,90.29,256.52,92c-8.19.85-16.39,1.88-23.87,5.78a31.12,31.12,0,0,1-19.6,3.29,3.64,3.64,0,0,0-3.06,1.09c-3.19,5.74-8.39,8.66-14.45,9.7-8.32,1.42-15.22,5.39-21.62,10.52-17.83,14.33-32.5,31.67-46.72,49.41-5.47,6.82-10.62,13.89-16.11,20.7-5.9,7.32-10.93,8.17-18.84,3.33-3.8-2.33-7.41-5-11.1-7.46V171.08c.64-1,1.35-2,1.94-3.07,12.54-22.88,24.68-46,37.71-68.57C133.33,77.73,149.85,59.18,169,43c4.81-4.08,9.95-7.33,16.71-4.08,3.87-5.72,9.59-7.62,15.93-7.83,4.72-.16,9.47.34,14.21.4,26.24.31,52.48.76,78.72.77,12.48,0,24.95-.87,37.43-1.33,6.21-.23,11.72.94,14.83,7.21a2.93,2.93,0,0,0,2.32,1.2c8.43-.53,14.86,3.46,20.65,9,6.86,6.54,13.6,13.21,20.61,19.59,5.5,5,11.33,9.65,17.47,14.83,1.86-16.88,11.64-25.34,27.19-28.06.09-1,.22-1.86.24-2.72.18-8.45,3.18-12.47,11.39-14.21a87.64,87.64,0,0,1,36.84,0c8.48,1.82,11.44,5.72,11.64,14.4,0,.73.11,1.45.17,2.29,1.33.34,2.52.66,3.72.93C514.8,58.91,522.79,69,522.8,85.23c0,14.62.43,29.27-.2,43.86-.26,5.92-2.6,11.81-4.45,17.56-.72,2.21-2.71,4-4.23,6.16,6.57,1.52,11.22,4.79,13.2,11.25a3.56,3.56,0,0,0,2.49,1.72c6.55,1.13,11.83,4.49,16.57,8.93a17.43,17.43,0,0,0,3.75,3,207.85,207.85,0,0,0,49,18.19c13.94,3.22,28,2.63,42.15,2.19,4.22-.14,8.59,1,12.7,2.21,1.81.55,2.79.59,4.23-.53,3.94-3.06,8.44-4.5,13.34-3,6.11,1.88,12.09,1.15,18.11-.2,10.75-2.42,20.25-7.74,29.87-12.78,8.47-4.45,16.13-9.75,22.12-17.53,2.45-3.19,6.7-5,10.07-7.5,1-.73,2.22-1.71,2.41-2.74,1.07-5.6,4.62-9.15,9-12.39a47.76,47.76,0,0,0,9.25-8.58c6.93-8.87,11.19-19.23,14.4-29.87,6.31-20.91,12.12-42,18-63,1.37-4.92,3.32-9.37,7.07-12.91ZM434.58,162.92h0c-5.49-.05-11-.17-16.49-.12-4.16,0-6.12,2-5.9,6a62.4,62.4,0,0,0,1.42,12.24A13.33,13.33,0,0,0,418,188c5.33,4.1,11.11,7.62,16.77,11.28,5,3.22,10,6.32,15,9.48l-.29,1.25L404.77,207c-.94,5.34-1.83,10.41-2.8,16l46.39-10.57a8.46,8.46,0,0,1-2.82,2.67c-12.92,8.08-25.6,16.59-38.87,24-6.8,3.81-10.21,8.45-10.94,16.14s-2.81,15.47-4,23.25c-.75,5,.94,6.87,5.27,6.87q63.56-.1,127.11-.17c3.5,0,7,.18,10.48.2,2.81,0,4-1.22,3.56-4.22-1.61-10.6-3.19-21.22-4.51-31.86a7.18,7.18,0,0,0-3.86-5.81c-10.76-6.57-21.45-13.27-32.14-19.95-5.59-3.49-11.14-7-16.71-10.56l.31-.58,47.37,10.77c-1.16-6-2.16-11.23-3.13-16.25L480.14,210c-.07-.42-.15-.85-.22-1.28,1.21-.79,2.42-1.59,3.63-2.37,8.92-5.75,17.77-11.63,26.8-17.2a12.18,12.18,0,0,0,6.13-9.68c.39-3.6.8-7.2,1-10.81.21-3.08-1.46-5.41-4.36-5.59-6-.37-12.07-.11-19-.11l18.38,22.4-39.28,25c6.57-8.56,13.48-16.61,20.3-24.73,1-1.19,2.33-2.78,2.25-4.11-.39-6.18-1.22-12.34-1.9-18.57Zm31.16-98.61v0H440.27c-.63,0-1.25,0-1.87.1-13.59,1.13-20.28,8.36-20.27,21.86,0,13-.1,26,.05,39a52.16,52.16,0,0,0,1.32,11.84c1.31,5.27,8.5,10.89,12.81,10.52,5-.43,9.92-1.12,14.89-1.55a234.65,234.65,0,0,1,51.15,1.63,10.45,10.45,0,0,0,6.53-1.29c5.8-3.71,7.63-9.81,7.72-16.21.25-15.86.23-31.72,0-47.57-.09-8.1-4.29-13.76-12-16.37a37.37,37.37,0,0,0-10.6-1.88C482,64.12,473.85,64.31,465.74,64.31Zm367.52,9.52c0-5.25.14-10.49,0-15.73a127.49,127.49,0,0,0-1.16-14.89,7.77,7.77,0,0,0-3.26-5.06c-6.39-3.58-12.39-.86-14.36,6.11-5.86,20.63-11.19,41.43-17.7,61.85-5.89,18.47-12.69,36.74-30.54,47.81-2.47,1.53-2.73,4.21-1.62,7,5.67,14.33,15.22,25,29.32,31.5,9,4.12,12.7,2.81,17.1-5.93,7.49-14.83,11.87-30.66,15.06-46.87C830.34,117.92,832.33,95.94,833.26,73.83ZM135.57,318.88c2.41,12.77,4.38,26.64,7.69,40.17,7.43,30.39,20.63,58.54,34.94,86.19,5.09,9.84,6.1,10.1,16.15,5.47,3.09-1.43,4.14-3.24,3.35-6.78C193.31,424.33,189,404.72,185,385c-3.88-19.21-3.9-38.1,4.89-56.4,4.06-8.47-1.49-16.44-10.85-18.23-11-2.09-21.88-4.84-32.74-7.6-4.41-1.13-7.31-.45-8.71,3.92C136.46,310.2,136.33,314,135.57,318.88ZM180.5,47a56.13,56.13,0,0,0-5.34,3.92C167.69,58.07,160,65,153,72.59c-12.24,13.11-22,28.09-30.75,43.68-10.7,19.16-20.83,38.65-31,58.09-3.52,6.73-3,7.69,3.64,11.34a20.35,20.35,0,0,1,2.88,1.73c2.18,1.73,3.74,1.13,5.3-.93,3.76-5,7.6-9.89,11.46-14.79,15.3-19.43,31-38.54,50-54.54,8.47-7.12,17.42-13.44,28.83-15a14.26,14.26,0,0,0,3.2-1c4.48-1.81,5.63-4,3.88-8.47-4-10.21-8-20.4-12.34-30.49C185.89,57.22,183.21,52.45,180.5,47ZM632,441.41A61.09,61.09,0,0,0,639.3,440c16.63-5.62,32.13-13.65,47.27-22.4,26.08-15.07,48.79-34.66,71.8-53.85a20.72,20.72,0,0,0,2.57-2.72c1.44-1.74,1.56-3.39.09-5.37-4.91-6.62-5.72-6.89-13.16-3.3-1,.49-2,1-3,1.51-13.15,6.88-26.16,14-39.49,20.57C690,382,674,388.19,656.55,388.81c-5.57.2-11.18-.68-16.78-1.1-5.82-.43-7.23,1.26-5.57,6.69,4.35,14.22,5.56,28.38-.87,42.4A38.05,38.05,0,0,0,632,441.41ZM205.55,41.5v-.69c-.88,0-1.76-.06-2.62,0-9.75.83-11.51,4.81-6.6,13.31a105.42,105.42,0,0,1,7.54,16.62c1.62,4.42,2.21,9.21,3.43,13.79.73,2.76,1.37,5.81,4.94,6.34,5.25.79,10.29.59,15.34-1.73,19.21-8.8,39.5-9.43,59.82-6,7.68,1.3,14.88,5.52,22.25,8.53,5.94,2.43,7,2.14,10.23-3.33,7.83-13.21,13.13-27.44,17-42.25,1.17-4.52.11-5.57-4.72-5.33-12.22.6-24.44,1.47-36.66,1.46C265.5,42.21,235.53,41.77,205.55,41.5ZM195.3,308.43c3.91-1.2,4.2-4.58,5.06-7.43,7.33-24,23.12-40,46.12-49.27,4.27-1.73,8.75-3,12.86-5.07,7.59-3.77,8.18-5.82,3.79-13-6.75-11.09-13.76-22-20.61-33-2.64-4.26-5.94-5.11-9.87-2a40.24,40.24,0,0,0-5.59,6c-2.95,3.55-5.62,7.33-8.66,10.8-17.64,20.17-37.65,37.86-57.88,55.33-4.52,3.91-8.86,8.06-13,12.4-1.71,1.79-2.61,4.35-3.87,6.56l.84.63c6-4,11.4-1.69,17.06.83a123.8,123.8,0,0,0,16,5.91C184.69,299.12,191.54,301.24,195.3,308.43Zm199.22,97.88h62.91V402c0-10.12.16-20.24-.08-30.35-.09-3.64-1.15-7.26-1.73-10.69H395.88C395.42,376.08,395,391,394.52,406.31Zm81.15-45.4c-3.67,3.76-3,8.33-3,12.76v32.57h62.95c-.46-15.3-.92-30.23-1.37-45.33ZM792.61,205.39l-.57-1.14c-16.06-1.91-32.77-18.71-35.86-36.3-4,.88-6.13,4-8.76,6.54-4.33,4.28-8.41,9.14-13.52,12.2a283.8,283.8,0,0,1-30.88,16c-10,4.43-20.67,6.74-31.78,4.39-6.69-1.41-10.21,1.2-10.36,8.19s-.3,13.76.12,20.61a168.82,168.82,0,0,0,2.44,20.05c1.17,6.43,3.52,7.19,9,3.69,4.32-2.75,8.45-5.87,13-8.1,16.5-8.05,33-16,49.76-23.57,15.57-7,31-14.45,47.89-18.16C786.44,209.07,789.45,206.9,792.61,205.39ZM465.16,289.2h-6c-19.12,0-38.24.06-57.36-.05-3.27,0-4.89.72-4.54,4.37a49.61,49.61,0,0,1,0,9.36c-.35,3.64,1.2,4.36,4.51,4.34,21.87-.12,43.73-.06,65.6-.06,20.24,0,40.48-.05,60.73.07,3.28,0,4.87-.68,4.51-4.34a48,48,0,0,1,0-9.36c.34-3.59-1.13-4.41-4.48-4.39C507.15,289.27,486.16,289.2,465.16,289.2Zm-61.3-131.46,13.56-5.7-9.12-14.77c-5.47,1.69-8.26.85-12.28-4-2.47-3-4.68-6.21-7.43-8.89C378.93,115,369,105.85,356.9,99.49a18.1,18.1,0,0,1-9.62-11.43,14.14,14.14,0,0,1,5.23-14.63c3.81-2.81,7.9-2.51,13.16,1A39.85,39.85,0,0,1,369,76.88c8,6.77,15.87,13.72,24,20.27,4.68,3.75,9.85,6.88,15.45,10.73a58.15,58.15,0,0,1,0-6.6c.49-3.62-1.07-5.87-3.75-8.23-14.42-12.7-28.55-25.71-43-38.41-2.54-2.23-5.86-3.65-9-5.12-1.94-.93-3.24,0-3.72,2.26-3.55,16.31-8.63,32-19.49,46.31,3.14,1.8,5.82,3.86,8.85,5,21.33,7.92,38.44,21.39,52.46,39.11C395.3,147.73,400,153.07,403.86,157.74ZM455.23,311.5H396.85v38.06h58.38Zm77.85,38.27V311.46h-58v38.31ZM248.82,191.42c16.2,12.52,26.37,27,25.95,47.53,2.65-1,5.65-2.19,8.63-3.39,8.89-3.61,17.59-7.78,26.69-10.75,14.83-4.84,30.3-6.09,45.84-6.51,1.17,0,2.92-.54,3.37-1.38a81.36,81.36,0,0,0,3.51-8.26c-7.22-3.93-14.64-3.35-21.93-2.21-17.7,2.75-35.87,3.19-52.69,10.45-4.06,1.75-7.81.8-10.44-2.58a69.5,69.5,0,0,1-7.52-11.57c-2.55-5.14-.4-9.26,5.3-10.26a62.52,62.52,0,0,1,13.78-1c15.66.76,31.2.37,46.57-3.1,7.43-1.67,14.88-3.23,22.38-4.49,6-1,11.34,0,13.35,7.65l9.6-14.9c-.14-.46-.27-.92-.41-1.39-3.23-.3-6.55-1.24-9.66-.76-4.52.7-8.85,2.54-13.31,3.68C329,185.54,299.58,188.34,269.91,189c-5.49.13-11,.29-16.46.65C252,189.78,250.68,190.69,248.82,191.42Zm401.92,70c-1.17-7.55-2.31-13.67-3-19.84-1.16-10-3.11-20.1,1.93-29.75,1.11-2.13-.57-3.1-2.23-3.37a29.37,29.37,0,0,0-7.06-.37c-24.62,2.31-48.26-1.67-71.17-10.67-3.14-1.23-6.3-2.45-10.07-3.91,3.33,6.93,6.16,13.17,9.33,19.23a8.69,8.69,0,0,0,4.06,3.8A111.2,111.2,0,0,0,610,224.41c8.44.35,17,.83,24.74,5,5.86,3.17,7.41,8.34,4.89,15.46-1.88,5.32-5.24,7-12,5.81q-2.58-.45-5.11-1.16c-9.85-2.74-19.67-5.62-29.56-8.22-4.69-1.24-9.52-2-14.28-2.9l-.87,1.59c1.37,1.23,2.54,3.12,4.14,3.58q29.79,8.67,59.71,16.9C644.49,261.25,647.58,261.08,650.74,261.37ZM545.08,393.07a50.44,50.44,0,0,1,0,5.43c-.69,5.09,1.65,7.53,6.28,9.7,19.43,9.09,39.18,17.59,57.18,29.52,7.55,5,14.7,1.56,16.66-7.28a21.64,21.64,0,0,0,.59-4.45c.06-8.73-.2-17.47.13-26.19.29-7.86-6.22-14.44-14.91-14.4a94.32,94.32,0,0,1-50.93-14.22c-5.63-3.51-10.53-8.19-15.88-12.43-.43,3.53-.15,6.61,3,9.45a94.65,94.65,0,0,0,47.36,23.48,138.28,138.28,0,0,1,15.69,3.44c5.3,1.66,6.95,5.5,6.17,12.07-1,8.72-4.11,13.17-9.61,13.87a10,10,0,0,1-3,0,19.58,19.58,0,0,1-5.45-1.23c-9-4.38-17.83-8.94-26.74-13.43Zm-158.16-132c.42-3.79.8-7,1.13-10.23,1.49-14.87,4.7-29.34,11.11-42.88,4.74-10,4.43-21,7.59-32.09a69.27,69.27,0,0,0-7,.92c-5.71,1.39-9.27,5.66-12.63,10-14.22,18.56-21.52,40.33-28.64,62.17a80.74,80.74,0,0,0-1.79,8.44C367.8,252.9,377.54,254,386.92,261.09Zm185.26-3.9a4.86,4.86,0,0,0,.16-1.06c-5.4-25.17-15.69-48.31-29.67-69.79-2.29-3.52-6-6.27-9.52-8.76a10,10,0,0,0-9.69-1.36c1.68,8.48,3.31,16.78,5,25.08a14.91,14.91,0,0,0,1.19,3.5c8.38,17,13.23,34.87,12.72,54a25.47,25.47,0,0,0,.24,2.89C553.5,253.9,560.74,252.84,572.18,257.19ZM457.12,444.63v-26c-21,0-41.77,0-62.5.08a2.88,2.88,0,0,0-2.14,1.81c-.61,7.93-1,15.87-1.52,24.08Zm15.54-26c0,7.87.15,15.21-.08,22.54-.09,3.09,1,3.73,3.88,3.72,19.72-.1,39.44-.05,59.16-.07,1.08,0,2.16-.15,3.52-.26-.44-7.62-1-14.93-1.22-22.26-.09-2.92-1.07-3.76-4-3.74-17.22.13-34.45.07-51.67.07Zm-172-223.15c-2.63,0-5-.06-7.37,0-5.48.16-11,.09-16.42.68-3.78.4-4.62,2.19-2.84,5.43a88.24,88.24,0,0,0,6.58,10c1.54,2.09,3.68,2.67,6.31,1.62,3.7-1.48,7.42-3.2,11.29-3.9,13.61-2.44,27.28-4.61,41-6.62,7.4-1.08,14.86-1.84,22.19.94,1,.36,2.73-.36,3.64-1.14,2.37-2,3.57-9.87,1.71-12.31a6.83,6.83,0,0,0-4.56-2.47,39.16,39.16,0,0,0-9.25,1C335.59,192.44,318.36,196.8,300.67,195.51Zm107.9-73.07h-.1a24.49,24.49,0,0,1,0-4.11c.76-4.35-1.43-6.69-4.85-9-7.6-5.21-15-10.78-22.22-16.47-6.27-4.93-12-10.55-18.43-15.25-5.34-3.92-10.28-1.8-11.73,4.72a10,10,0,0,0,1,7,23.32,23.32,0,0,0,7.4,7.13,136.53,136.53,0,0,1,38.61,33.2,12.54,12.54,0,0,0,3.39,3.42c1.24.65,3.28,1,4.35.44a6.16,6.16,0,0,0,2.49-4A42,42,0,0,0,408.57,122.44Zm136,249.66a53.93,53.93,0,0,1-.06,7.84c-1,6.72,1.53,10,8.08,12.85,12.35,5.29,24,12.24,36,18.35a67.09,67.09,0,0,0,12.72,5.37c2.43.65,6.38.43,7.86-1.12,3.39-3.53,4-8.61,2.9-13.35-.89-3.82-4.79-3.86-7.91-4.56-1.46-.32-3-.57-4.43-.8-12.93-2-25.43-5.49-36.76-12.14C556.71,380.84,550.87,376.37,544.6,372.1ZM572,220.82c1.83,4.76,2.66,9.52,5.31,12.79,1.55,1.92,6,1.46,9.18,2.11,1.58.33,3.16.69,4.72,1.12,12,3.26,24,6.7,36.09,9.75,6.61,1.67,9.38-.83,9.47-7.58,0-3.77-2.31-6-5.38-6.8a149.16,149.16,0,0,0-17.14-3.5c-9.6-1.43-19.29-2.28-28.86-3.84C581.08,224.16,576.93,222.34,572,220.82ZM459.26,311.43v40.76c0,7.8,0,7.65,7.73,7.76,3.23.05,4-1.17,4-4.16-.12-13.61-.05-27.23-.07-40.84,0-1.1-.12-2.2-.2-3.52ZM485,59.28a64.15,64.15,0,0,0-.12-8.5,4.36,4.36,0,0,0-2.53-3,72.93,72.93,0,0,0-34,0,4.28,4.28,0,0,0-2.65,2.92,63.17,63.17,0,0,0-.13,8.63ZM498.6,153c-11.34-.7-22.5-1.95-33.65-1.9s-22.55,1.39-33.77,2.16c-.67,5.7-.67,5.7,4.69,5.69H498.6Zm53.89,135.43c11.43-7.25,13.57-7.07,26.45,2,2.46-7.72,1.13-13.88-3.71-17.21-6.4-4.41-14.15-4.29-19.81.3C550.66,277.36,549.74,281.86,552.49,288.41Zm-174.79-.92c1.89-6.1.34-11-4.48-14.76s-11.78-3.76-17.29-.36c-5.23,3.22-7.11,9.09-5.44,17.38C359,282.54,368.06,280.77,377.7,287.49Zm1.15,9.75c8.53-3.51,10.65-19.26,4.63-26.22-10.67-12.34-31.84-10.16-39.67,4.14a16.22,16.22,0,0,0-.14,16.4,14.22,14.22,0,0,0,1.46-5.65c.41-12.13,8.56-20.26,20.18-20,13.09.3,20.72,13.21,15.37,26C380,293.62,379.45,295.45,378.85,297.24Zm172.33.6c-1.23-3.68-2.17-6.35-3-9-1.91-6.09-1.86-11.88,3-16.72,6.1-6.11,13.29-7.44,21.37-4.68,8.56,2.92,11.68,9.4,12.07,17.91.09,1.88,1.28,3.72,2,5.58.75-1.93,2.07-3.83,2.16-5.79.37-8.28-5.54-16.51-14.13-20.3-8.84-3.88-18.85-2.36-25.5,3.89C539.92,277.3,540.41,290.11,551.18,297.84ZM536.59,414.52c.11-3.37-1.32-4.22-4.33-4.19-18.49.13-37,.06-55.48.06H472.9v4.13ZM457,410.68a6.88,6.88,0,0,0-1.26-.26c-19.61,0-39.22,0-58.83-.09-3.15,0-3.3,1.83-3.53,4.18a17.84,17.84,0,0,0,2,.23c19.61,0,39.23,0,58.84.05C457.23,414.8,458,413.63,457,410.68Zm-266.34-99.8c-.16-1,0-2.36-.55-2.88-1.91-1.73-3.89-3.83-6.22-4.56-10.06-3.18-20.17-6.06-29.69-10.84-4.15-2.09-8.09.44-10.22,5.91l26.76,6.76C177.24,306.9,184.6,305.59,190.68,310.88ZM246,197l-.51,1.1,24.27,38.63,1.2-.24c-.22-2.88,0-5.89-.75-8.63A60.72,60.72,0,0,0,257.26,204a45.23,45.23,0,0,0-7.63-6.56C248.76,196.84,247.21,197.14,246,197Zm274.67-14.6c-5.3,12.1-17.93,14.65-26.89,23l30.92-2.71C523.26,195.62,522,189.19,520.64,182.41ZM329.39,91.63c8.47-12.72,12.88-26.67,15.94-41.35l-4.14-1.4-16.26,40.7Zm79.67,92.28c-1.11,6.19-2.21,12.37-3.38,18.93l29.39,2.48a170.73,170.73,0,0,0-15.58-11.21C415.5,191.42,411,189.12,409.06,183.91Zm247.18,29.18c-4.3-1-4.13,3.06-4.87,5.51-2.64,8.68,0,17.32.74,26,.38,4.18,1.25,8.31,1.93,12.72l4.44-.4C657.72,242.07,657,227.68,656.24,213.09Zm105.67-48.15a11.55,11.55,0,0,0,.4,11.94,50.6,50.6,0,0,0,9.23,11.56,102.66,102.66,0,0,0,15,10.39c2.89,1.75,6.24,2.26,9.06-1.27C780.06,191.21,768.87,180.62,761.91,164.94ZM504.12,356.8c9,0,18,0,26.93-.06,1,0,2-.8,3-1.23C533,355,532,354,531,354q-26.57-.15-53.11,0c-1,0-2,.8-3,1.23,1,.53,2,1.51,3.07,1.53C486.67,356.85,495.4,356.8,504.12,356.8Zm-78.31,0c8.73,0,17.46.05,26.18-.06,1.11,0,2.21-.85,3.31-1.31-1.05-.5-2.11-1.44-3.17-1.44q-26.36-.14-52.73,0c-1.1,0-2.2.84-3.3,1.29,1.18.51,2.35,1.44,3.54,1.46C408.36,356.85,417.09,356.79,425.81,356.8Zm77.55-135.35-.42.61,29,18.08c-.81-4.09-1.21-7.18-2.11-10.12a5.08,5.08,0,0,0-2.83-3.1C519.18,224.93,511.26,223.24,503.36,221.45Zm-76.82.68-.22-.7c-7.77,1.76-15.54,3.48-23.29,5.33a3.18,3.18,0,0,0-2.12,1.7c-.78,3.32-1.28,6.71-2,10.92ZM187.37,50.44c5.61,13.15,10.74,25.18,15.88,37.21-1.5-12.9-5.12-25-12.8-35.6C190,51.43,189,51.24,187.37,50.44Zm442,344.25v40.69C636.12,421.53,634.32,408.19,629.39,394.69Zm-77.32-83.75c0-1.86.13-3.72-.05-5.54-.11-1.13-.38-2.64-1.15-3.24-2.36-1.84-5-3.31-7.47-4.88C541.75,305.51,544.56,310.23,552.07,310.94Zm-173.84-.63c7.2-1.06,9.86-5.33,8.49-12.16l-8.49,4.75ZM493.82,192.57l12.8-8.2c-2.3-2.78-4.31-5.19-6.61-8C499.52,182.62,499.52,182.62,493.82,192.57Zm89.05,102c0,2.69-.12,5.17.07,7.61.07.81,1,2.22,1.42,2.19.93-.07,2.37-.73,2.59-1.45a75.66,75.66,0,0,0,1.6-7.85ZM346,295.62l-4.39.23a43.09,43.09,0,0,0,.12,6.87c.15.89,1.6,1.56,2.46,2.33.6-.8,1.63-1.55,1.73-2.41A67.11,67.11,0,0,0,346,295.62Zm50.8-67.05-.85-.49-4,20.64,1,.19Q394.88,238.74,396.82,228.57ZM535,229.79l-.91.2q1.9,10,3.83,20l.9-.17ZM384.72,265.62c-3.94-5.28-8.82-6.4-14.23-6.86Zm159.84.74,13.59-7.66C552.83,259.9,547.88,261.47,544.56,266.36Z" transform="translate(-12.78 -29.33)"/><path class="cls-9" d="M811.65,29.33c-3.75,3.54-5.7,8-7.07,12.91-5.88,21-11.69,42.08-18,63-3.21,10.64-7.47,21-14.4,29.87a47.76,47.76,0,0,1-9.25,8.58c-4.36,3.24-7.91,6.79-9,12.39-.19,1-1.44,2-2.41,2.74-3.37,2.52-7.62,4.31-10.07,7.5-6,7.78-13.65,13.08-22.12,17.53-9.62,5-19.12,10.36-29.87,12.78-6,1.35-12,2.08-18.11.2-4.9-1.51-9.4-.07-13.34,3-1.44,1.12-2.42,1.08-4.23.53-4.11-1.22-8.48-2.35-12.7-2.21-14.13.44-28.21,1-42.15-2.19a207.85,207.85,0,0,1-49-18.19,17.43,17.43,0,0,1-3.75-3c-4.74-4.44-10-7.8-16.57-8.93a3.56,3.56,0,0,1-2.49-1.72c-2-6.46-6.63-9.73-13.2-11.25,1.52-2.14,3.51-3.95,4.23-6.16,1.85-5.75,4.19-11.64,4.45-17.56.63-14.59.21-29.24.2-43.86,0-16.27-8-26.32-23.76-29.94-1.2-.27-2.39-.59-3.72-.93-.06-.84-.16-1.56-.17-2.29-.2-8.68-3.16-12.58-11.64-14.4a87.64,87.64,0,0,0-36.84,0c-8.21,1.74-11.21,5.76-11.39,14.21,0,.86-.15,1.71-.24,2.72-15.55,2.72-25.33,11.18-27.19,28.06-6.14-5.18-12-9.82-17.47-14.83-7-6.38-13.75-13-20.61-19.59-5.79-5.5-12.22-9.49-20.65-9a2.93,2.93,0,0,1-2.32-1.2c-3.11-6.27-8.62-7.44-14.83-7.21-12.48.46-25,1.34-37.43,1.33-26.24,0-52.48-.46-78.72-.77-4.74-.06-9.49-.56-14.21-.4-6.34.21-12.06,2.11-15.93,7.83-6.76-3.25-11.9,0-16.71,4.08-19.12,16.21-35.64,34.76-48.17,56.47C107.77,122,95.63,145.13,83.09,168c-.59,1.06-1.3,2.05-1.94,3.07V29.33Z" transform="translate(-12.78 -29.33)"/><path class="cls-9" d="M81.15,188.33c3.69,2.49,7.3,5.13,11.1,7.46,7.91,4.84,12.94,4,18.84-3.33,5.49-6.81,10.64-13.88,16.11-20.7,14.22-17.74,28.89-35.08,46.72-49.41,6.4-5.13,13.3-9.1,21.62-10.52,6.06-1,11.26-4,14.45-9.7a3.64,3.64,0,0,1,3.06-1.09,31.12,31.12,0,0,0,19.6-3.29c7.48-3.9,15.68-4.93,23.87-5.78,16.16-1.68,32-1,46.47,7.64.53.31,1.13.51,1.7.78,5.2,2.48,10.51,4,16.33,1.47,4.08,6.88,10.85,9.29,17.63,12,16.75,6.82,30.58,17.75,42.13,31.59,5.82,7,11.52,14,17.27,21l-8.55,3.61c-8.85-7.79-18.66-6.22-29.36-3.34-13.93,3.75-28.18,7-42.5,8.5-20.58,2.23-41.34,2.76-62,4-5.59.35-11,1.25-14.49,6.39a2.82,2.82,0,0,1-2.08,1.09c-8.13-.54-13.87,3.62-18.37,9.67-15.4,20.67-34.23,38-53.36,55-7.93,7.06-15.95,14-23.77,21.18-6.1,5.58-10.38,12.14-9.87,20.94a3.9,3.9,0,0,1-1.09,2.6c-4.83,5-6.6,11.15-6.37,17.85a224,224,0,0,0,8.24,51.29c8.5,31.15,22,60.2,37.06,88.6,1.43,2.7,3.73,4.94,5.63,7.39h-96Z" transform="translate(-12.78 -29.33)"/><path class="cls-9" d="M434.58,162.92h59.36c.68,6.23,1.51,12.39,1.9,18.57.08,1.33-1.24,2.92-2.25,4.11-6.82,8.12-13.73,16.17-20.3,24.73l39.28-25L494.19,163c6.9,0,12.95-.26,19,.11,2.9.18,4.57,2.51,4.36,5.59-.24,3.61-.65,7.21-1,10.81a12.18,12.18,0,0,1-6.13,9.68c-9,5.57-17.88,11.45-26.8,17.2-1.21.78-2.42,1.58-3.63,2.37.07.43.15.86.22,1.28l45.37-3.14c1,5,2,10.21,3.13,16.25l-47.37-10.77-.31.58c5.57,3.52,11.12,7.07,16.71,10.56,10.69,6.68,21.38,13.38,32.14,19.95a7.18,7.18,0,0,1,3.86,5.81c1.32,10.64,2.9,21.26,4.51,31.86.46,3-.75,4.24-3.56,4.22-3.49,0-7-.21-10.48-.2q-63.56.06-127.11.17c-4.33,0-6-1.88-5.27-6.87,1.16-7.78,3.22-15.45,4-23.25s4.14-12.33,10.94-16.14c13.27-7.44,25.95-15.95,38.87-24a8.46,8.46,0,0,0,2.82-2.67L402,222.91c1-5.55,1.86-10.62,2.8-16L449.43,210l.29-1.25c-5-3.16-10-6.26-15-9.48-5.66-3.66-11.44-7.18-16.77-11.28a13.33,13.33,0,0,1-4.35-6.93,62.4,62.4,0,0,1-1.42-12.24c-.22-4,1.74-6,5.9-6,5.5-.05,11,.07,16.49.12a31.53,31.53,0,0,1-2.37,4c-5,6.13-10,12.2-15.21,18.47l39.34,25a249.43,249.43,0,0,0-17.42-21c-4.17-4.43-6-9-4.72-15.09C435,170.64,434.49,166.72,434.58,162.92Zm31.16,120.93c.76-1.75,1.25-2.72,1.63-3.74,4.75-12.75,9.23-25.61,14.36-38.21,1.95-4.79,1.67-8.06-2-11.81-5.39-5.47-10.19-11.54-15.52-17.68-5.91,8.06-11.56,15.66-17,23.39-.59.84-.44,2.63,0,3.72C453.18,254.05,459.3,268.53,465.74,283.85ZM453.57,215l-.62-.47-36.08,23,37.66,40.84a2.75,2.75,0,0,0-.24-2.28c-5.34-10.42-10.58-20.89-16.12-31.21-1.71-3.19-1.44-5.47.67-8.36C444,229.53,448.68,222.22,453.57,215Zm20.81,63,.55.55,37.79-41-36.1-23a259.47,259.47,0,0,0,14.7,22.82c1.66,2.34,1.82,4.15.47,6.73C485.86,255.35,480.16,266.71,474.38,278Zm-3.06-106.94c-.19,5.15.38,10.06-5.93,10.44-6.85.42-8.69-3.71-8.21-10-3.66,4.48-6.56,8.84-9.91,12.82-2.25,2.67-1.57,4.36.49,6.6,4.3,4.68,8.35,9.59,12.53,14.37,1.52,1.74,3.14,3.38,4.9,5.28,6.2-7.47,12.12-14.53,17.93-21.68a2.7,2.7,0,0,0,.13-2.54C479.54,181.43,475.67,176.61,471.32,171.08Z" transform="translate(-12.78 -29.33)"/><path class="cls-9" d="M465.74,64.31c8.11,0,16.24-.19,24.34.09a37.37,37.37,0,0,1,10.6,1.88c7.67,2.61,11.87,8.27,12,16.37.19,15.85.21,31.71,0,47.57-.09,6.4-1.92,12.5-7.72,16.21a10.45,10.45,0,0,1-6.53,1.29,234.65,234.65,0,0,0-51.15-1.63c-5,.43-9.92,1.12-14.89,1.55-4.31.37-11.5-5.25-12.81-10.52a52.16,52.16,0,0,1-1.32-11.84c-.15-13,0-26-.05-39,0-13.5,6.68-20.73,20.27-21.86.62,0,1.24-.1,1.87-.1h25.47Zm-37.45,9C424,82.6,421,92.8,421.92,103.77A28.33,28.33,0,0,0,429,120.69c6.92,7.77,15.1,8.53,22.37,1.14,3.86-3.92,6.57-9,9.77-13.55,1.33-1.9,1.12-3.66-.52-5.35-4.33-4.46-8.37-9.24-13-13.4C441.45,83.89,434.8,78.69,428.29,73.27Zm73.45-.18c-3.2,2.74-6.09,5-8.78,7.55-7.9,7.38-15.78,14.8-23.53,22.34-.87.85-1.63,2.88-1.21,3.81,3,6.76,6.91,13,13.1,17.43,5.28,3.75,11.55,3.88,16.19-.56,3.43-3.27,6.77-7.26,8.44-11.59C511.21,98.49,506.87,85.67,501.74,73.09Z" transform="translate(-12.78 -29.33)"/><path class="cls-9" d="M833.26,73.83c-.93,22.11-2.92,44.09-7.2,65.82-3.19,16.21-7.57,32-15.06,46.87-4.4,8.74-8.15,10-17.1,5.93-14.1-6.49-23.65-17.17-29.32-31.5-1.11-2.82-.85-5.5,1.62-7,17.85-11.07,24.65-29.34,30.54-47.81,6.51-20.42,11.84-41.22,17.7-61.85,2-7,8-9.69,14.36-6.11a7.77,7.77,0,0,1,3.26,5.06,127.49,127.49,0,0,1,1.16,14.89C833.4,63.34,833.26,68.58,833.26,73.83Zm-17.17,67.59c.09-6.51-2-9.64-6.69-11.22-4.18-1.41-7.94-.43-10.32,4.4C793.86,145.19,789,156,784.73,167c-2.12,5.45.79,10,6.19,12.37,6.57,2.9,12.35.8,16.28-6.16C813,163,814.64,151.63,816.09,141.42Z" transform="translate(-12.78 -29.33)"/><path class="cls-9" d="M135.57,318.88c.76-4.88.89-8.68,2-12.16,1.4-4.37,4.3-5.05,8.71-3.92,10.86,2.76,21.74,5.51,32.74,7.6,9.36,1.79,14.91,9.76,10.85,18.23-8.79,18.3-8.77,37.19-4.89,56.4,4,19.69,8.33,39.3,12.72,58.9.79,3.54-.26,5.35-3.35,6.78-10,4.63-11.06,4.37-16.15-5.47-14.31-27.65-27.51-55.8-34.94-86.19C140,345.52,138,331.65,135.57,318.88Zm37.9,17.38h0c0-2.25,0-4.5,0-6.74s.11-4.75,0-7.12c-.2-5.45-2.3-7.61-7.76-8-2.12-.16-4.25-.26-6.36-.22-9,.18-12.53,4.25-11.13,13.14,1.36,8.61,2.92,17.2,4.59,25.75,1.34,6.9,5,9.17,11.88,7.7,5.5-1.18,8.55-4.88,8.76-11C173.6,345.25,173.47,340.75,173.47,336.26Z" transform="translate(-12.78 -29.33)"/><path class="cls-9" d="M180.5,47c2.71,5.46,5.39,10.23,7.51,15.23,4.29,10.09,8.37,20.28,12.34,30.49,1.75,4.5.6,6.66-3.88,8.47a14.26,14.26,0,0,1-3.2,1c-11.41,1.56-20.36,7.88-28.83,15-19,16-34.69,35.11-50,54.54-3.86,4.9-7.7,9.81-11.46,14.79-1.56,2.06-3.12,2.66-5.3.93a20.35,20.35,0,0,0-2.88-1.73c-6.64-3.65-7.16-4.61-3.64-11.34,10.2-19.44,20.33-38.93,31-58.09,8.71-15.59,18.51-30.57,30.75-43.68C160,65,167.69,58.07,175.16,50.91A56.13,56.13,0,0,1,180.5,47Zm4.91,38.7c-.81-2.71-1.19-4.54-1.9-6.24-4.46-10.77-10.44-11.62-18.17-2.85-5.58,6.35-11.45,12.45-17.15,18.7-1.41,1.56-3.28,3.12-3.78,5-.61,2.3-.85,5.38.22,7.32,3.38,6.15,8.9,6.87,14.32,2.44,7.31-6,14.71-11.86,21.86-18C182.82,90.27,184,87.62,185.41,85.69Z" transform="translate(-12.78 -29.33)"/><path class="cls-9" d="M632,441.41a38.05,38.05,0,0,1,1.31-4.61c6.43-14,5.22-28.18.87-42.4-1.66-5.43-.25-7.12,5.57-6.69,5.6.42,11.21,1.3,16.78,1.1,17.46-.62,33.41-6.84,48.82-14.4,13.33-6.53,26.34-13.69,39.49-20.57,1-.52,2-1,3-1.51,7.44-3.59,8.25-3.32,13.16,3.3,1.47,2,1.35,3.63-.09,5.37a20.72,20.72,0,0,1-2.57,2.72c-23,19.19-45.72,38.78-71.8,53.85-15.14,8.75-30.64,16.78-47.27,22.4A61.09,61.09,0,0,1,632,441.41Zm22-16.84a36.49,36.49,0,0,0,6-1.68c7.3-3.18,14.52-6.55,21.72-10a21.52,21.52,0,0,0,4.66-3.08c4-3.42,3.84-7.72-.35-13.66-1.8-2.55-4.52-3.06-8.66-.43a55.38,55.38,0,0,1-25.07,8.79c-5.38.51-7.83,4.61-7,10,.26,1.59.59,3.18.9,4.77C646.9,422.9,649.09,424.66,654,424.57Z" transform="translate(-12.78 -29.33)"/><path class="cls-9" d="M205.55,41.5c30,.27,59.95.71,89.93.72,12.22,0,24.44-.86,36.66-1.46,4.83-.24,5.89.81,4.72,5.33-3.84,14.81-9.14,29-17,42.25-3.24,5.47-4.29,5.76-10.23,3.33-7.37-3-14.57-7.23-22.25-8.53-20.32-3.42-40.61-2.79-59.82,6-5.05,2.32-10.09,2.52-15.34,1.73-3.57-.53-4.21-3.58-4.94-6.34-1.22-4.58-1.81-9.37-3.43-13.79a105.42,105.42,0,0,0-7.54-16.62c-4.91-8.5-3.15-12.48,6.6-13.31.86-.07,1.74,0,2.62,0Zm21.63,10.61V51.9c-2.24.22-4.49.29-6.69.68-6.4,1.16-9.13,4.36-8.84,10.88a43.4,43.4,0,0,0,1.65,9.92c1.28,4.52,4.28,6.76,8.94,6.26a111.19,111.19,0,0,0,13.91-2.79c16.31-3.87,32.65-6,49.26-1.63,7,1.85,14,3.8,21.15,4.8,8.45,1.19,12.9-3.11,13.37-11.67.66-12.19-4-17.5-16.13-17.83-5.22-.14-10.47.55-15.7.84-12.82.7-25.64,1.69-38.47,2C242.15,53.51,234.66,52.55,227.18,52.11Z" transform="translate(-12.78 -29.33)"/><path class="cls-9" d="M195.3,308.43c-3.76-7.19-10.61-9.31-17.69-11.35a123.8,123.8,0,0,1-16-5.91c-5.66-2.52-11.11-4.79-17.06-.83l-.84-.63c1.26-2.21,2.16-4.77,3.87-6.56,4.12-4.34,8.46-8.49,13-12.4,20.23-17.47,40.24-35.16,57.88-55.33,3-3.47,5.71-7.25,8.66-10.8a40.24,40.24,0,0,1,5.59-6c3.93-3.14,7.23-2.29,9.87,2,6.85,11,13.86,21.94,20.61,33,4.39,7.21,3.8,9.26-3.79,13-4.11,2.05-8.59,3.34-12.86,5.07-23,9.27-38.79,25.3-46.12,49.27C199.5,303.85,199.21,307.23,195.3,308.43Zm54-84.46c0-7.24-3.65-10-7.81-12.29s-8.75-2.37-12.65.73a39.48,39.48,0,0,0-6.44,6.73c-13.57,17.37-28.31,33.56-46.13,46.75a33.85,33.85,0,0,0-6.81,6.87c-3.15,4.22-2.63,8.35,1.64,11.44,12,8.67,19.6,6.06,25.23-4.66.47-.88.83-1.82,1.36-2.67,2.24-3.58,4.15-7.45,6.86-10.65A129.82,129.82,0,0,1,233,240.93a76.85,76.85,0,0,0,12.41-10.12C247.57,228.66,248.58,225.37,249.35,224Z" transform="translate(-12.78 -29.33)"/><path class="cls-9" d="M394.52,406.31c.46-15.29.9-30.23,1.36-45.37h59.74c.58,3.43,1.64,7.05,1.73,10.69.24,10.11.08,20.23.08,30.35v4.33Z" transform="translate(-12.78 -29.33)"/><path class="cls-9" d="M475.67,360.91h58.57c.45,15.1.91,30,1.37,45.33H472.66V373.67C472.66,369.24,472,364.67,475.67,360.91Z" transform="translate(-12.78 -29.33)"/><path class="cls-9" d="M792.61,205.39c-3.16,1.51-6.17,3.68-9.5,4.41-16.88,3.71-32.32,11.14-47.89,18.16-16.73,7.53-33.26,15.52-49.76,23.57-4.56,2.23-8.69,5.35-13,8.1-5.49,3.5-7.84,2.74-9-3.69A168.82,168.82,0,0,1,661,235.89c-.42-6.85-.27-13.74-.12-20.61s3.67-9.6,10.36-8.19c11.11,2.35,21.78,0,31.78-4.39a283.8,283.8,0,0,0,30.88-16c5.11-3.06,9.19-7.92,13.52-12.2,2.63-2.59,4.8-5.66,8.76-6.54,3.09,17.59,19.8,34.39,35.86,36.3Zm-111,41.9c2.19-.46,4.51-.6,6.55-1.43a112.23,112.23,0,0,0,13.93-6.35c15.41-8.9,31.86-15.44,48.35-21.95,5.86-2.31,11.33-5.72,16.69-9.09,3.07-1.93,5-5.22,3.74-9.05a9.94,9.94,0,0,0-8.36-7.19,18.35,18.35,0,0,0-7.36.64,39.35,39.35,0,0,0-8.56,3.7c-16.17,9.31-32.93,17.18-51,22.26a174.2,174.2,0,0,0-19,6.84c-5.6,2.31-7.91,7.17-6.69,12.72C671.12,243.59,675.81,247.09,681.64,247.29Z" transform="translate(-12.78 -29.33)"/><path class="cls-9" d="M465.16,289.2c21,0,42,.07,63-.06,3.35,0,4.82.8,4.48,4.39a48,48,0,0,0,0,9.36c.36,3.66-1.23,4.36-4.51,4.34-20.25-.12-40.49-.07-60.73-.07-21.87,0-43.73-.06-65.6.06-3.31,0-4.86-.7-4.51-4.34a49.61,49.61,0,0,0,0-9.36c-.35-3.65,1.27-4.39,4.54-4.37,19.12.11,38.24.05,57.36.05Z" transform="translate(-12.78 -29.33)"/><path class="cls-9" d="M403.86,157.74c-3.91-4.67-8.56-10-12.95-15.56-14-17.72-31.13-31.19-52.46-39.11-3-1.12-5.71-3.18-8.85-5,10.86-14.29,15.94-30,19.49-46.31.48-2.22,1.78-3.19,3.72-2.26,3.12,1.47,6.44,2.89,9,5.12,14.42,12.7,28.55,25.71,43,38.41,2.68,2.36,4.24,4.61,3.75,8.23a58.15,58.15,0,0,0,0,6.6c-5.6-3.85-10.77-7-15.45-10.73-8.17-6.55-16-13.5-24-20.27a39.85,39.85,0,0,0-3.31-2.45c-5.26-3.51-9.35-3.81-13.16-1a14.14,14.14,0,0,0-5.23,14.63,18.1,18.1,0,0,0,9.62,11.43c12.12,6.36,22,15.47,31.69,24.9,2.75,2.68,5,5.91,7.43,8.89,4,4.84,6.81,5.68,12.28,4L417.42,152Z" transform="translate(-12.78 -29.33)"/><path class="cls-9" d="M455.23,311.5v38.06H396.85V311.5Z" transform="translate(-12.78 -29.33)"/><path class="cls-9" d="M533.08,349.77h-58V311.46h58Z" transform="translate(-12.78 -29.33)"/><path class="cls-9" d="M248.82,191.42c1.86-.73,3.22-1.64,4.63-1.74,5.48-.36,11-.52,16.46-.65,29.67-.69,59.08-3.49,87.92-10.86,4.46-1.14,8.79-3,13.31-3.68,3.11-.48,6.43.46,9.66.76.14.47.27.93.41,1.39l-9.6,14.9c-2-7.65-7.34-8.67-13.35-7.65-7.5,1.26-14.95,2.82-22.38,4.49-15.37,3.47-30.91,3.86-46.57,3.1a62.52,62.52,0,0,0-13.78,1c-5.7,1-7.85,5.12-5.3,10.26a69.5,69.5,0,0,0,7.52,11.57c2.63,3.38,6.38,4.33,10.44,2.58,16.82-7.26,35-7.7,52.69-10.45,7.29-1.14,14.71-1.72,21.93,2.21a81.36,81.36,0,0,1-3.51,8.26c-.45.84-2.2,1.35-3.37,1.38-15.54.42-31,1.67-45.84,6.51-9.1,3-17.8,7.14-26.69,10.75-3,1.2-6,2.35-8.63,3.39C275.19,218.39,265,203.94,248.82,191.42Z" transform="translate(-12.78 -29.33)"/><path class="cls-9" d="M650.74,261.37c-3.16-.29-6.25-.12-9.07-.9q-29.91-8.24-59.71-16.9c-1.6-.46-2.77-2.35-4.14-3.58l.87-1.59c4.76.95,9.59,1.66,14.28,2.9,9.89,2.6,19.71,5.48,29.56,8.22q2.54.71,5.11,1.16c6.77,1.16,10.13-.49,12-5.81,2.52-7.12,1-12.29-4.89-15.46-7.71-4.17-16.3-4.65-24.74-5a111.2,111.2,0,0,1-37.51-7.92,8.69,8.69,0,0,1-4.06-3.8c-3.17-6.06-6-12.3-9.33-19.23,3.77,1.46,6.93,2.68,10.07,3.91,22.91,9,46.55,13,71.17,10.67a29.37,29.37,0,0,1,7.06.37c1.66.27,3.34,1.24,2.23,3.37-5,9.65-3.09,19.74-1.93,29.75C648.43,247.7,649.57,253.82,650.74,261.37Z" transform="translate(-12.78 -29.33)"/><path class="cls-9" d="M545.08,393.07l26.49,13.32c8.91,4.49,17.78,9.05,26.74,13.43a19.58,19.58,0,0,0,5.45,1.23,10,10,0,0,0,3,0c5.5-.7,8.57-5.15,9.61-13.87.78-6.57-.87-10.41-6.17-12.07a138.28,138.28,0,0,0-15.69-3.44,94.65,94.65,0,0,1-47.36-23.48c-3.12-2.84-3.4-5.92-3-9.45,5.35,4.24,10.25,8.92,15.88,12.43A94.32,94.32,0,0,0,611,385.4c8.69,0,15.2,6.54,14.91,14.4-.33,8.72-.07,17.46-.13,26.19a21.64,21.64,0,0,1-.59,4.45c-2,8.84-9.11,12.28-16.66,7.28-18-11.93-37.75-20.43-57.18-29.52-4.63-2.17-7-4.61-6.28-9.7A50.44,50.44,0,0,0,545.08,393.07Z" transform="translate(-12.78 -29.33)"/><path class="cls-9" d="M386.92,261.09c-9.38-7.12-19.12-8.19-30.21-3.63A80.74,80.74,0,0,1,358.5,249c7.12-21.84,14.42-43.61,28.64-62.17,3.36-4.38,6.92-8.65,12.63-10a69.27,69.27,0,0,1,7-.92c-3.16,11.09-2.85,22.05-7.59,32.09-6.41,13.54-9.62,28-11.11,42.88C387.72,254.09,387.34,257.3,386.92,261.09Z" transform="translate(-12.78 -29.33)"/><path class="cls-9" d="M572.18,257.19c-11.44-4.35-18.68-3.29-29.58,4.49a25.47,25.47,0,0,1-.24-2.89c.51-19.12-4.34-37-12.72-54a14.91,14.91,0,0,1-1.19-3.5c-1.68-8.3-3.31-16.6-5-25.08a10,10,0,0,1,9.69,1.36c3.5,2.49,7.23,5.24,9.52,8.76,14,21.48,24.27,44.62,29.67,69.79A4.86,4.86,0,0,1,572.18,257.19Z" transform="translate(-12.78 -29.33)"/><path class="cls-9" d="M457.12,444.63H391c.49-8.21.91-16.15,1.52-24.08a2.88,2.88,0,0,1,2.14-1.81c20.73-.1,41.46-.08,62.5-.08Z" transform="translate(-12.78 -29.33)"/><path class="cls-9" d="M472.66,418.66h9.62c17.22,0,34.45.06,51.67-.07,2.9,0,3.88.82,4,3.74.22,7.33.78,14.64,1.22,22.26-1.36.11-2.44.26-3.52.26-19.72,0-39.44,0-59.16.07-2.84,0-4-.63-3.88-3.72C472.81,433.87,472.66,426.53,472.66,418.66Z" transform="translate(-12.78 -29.33)"/><path class="cls-9" d="M300.67,195.51c17.69,1.29,34.92-3.07,52.24-6.78a39.16,39.16,0,0,1,9.25-1,6.83,6.83,0,0,1,4.56,2.47c1.86,2.44.66,10.26-1.71,12.31-.91.78-2.68,1.5-3.64,1.14-7.33-2.78-14.79-2-22.19-.94-13.68,2-27.35,4.18-41,6.62-3.87.7-7.59,2.42-11.29,3.9-2.63,1.05-4.77.47-6.31-1.62a88.24,88.24,0,0,1-6.58-10c-1.78-3.24-.94-5,2.84-5.43,5.43-.59,10.94-.52,16.42-.68C295.67,195.45,298,195.51,300.67,195.51Z" transform="translate(-12.78 -29.33)"/><path class="cls-9" d="M408.57,122.44a42,42,0,0,1-.1,7.1,6.16,6.16,0,0,1-2.49,4c-1.07.6-3.11.21-4.35-.44a12.54,12.54,0,0,1-3.39-3.42,136.53,136.53,0,0,0-38.61-33.2,23.32,23.32,0,0,1-7.4-7.13,10,10,0,0,1-1-7c1.45-6.52,6.39-8.64,11.73-4.72,6.42,4.7,12.16,10.32,18.43,15.25,7.25,5.69,14.62,11.26,22.22,16.47,3.42,2.34,5.61,4.68,4.85,9a24.49,24.49,0,0,0,0,4.11Z" transform="translate(-12.78 -29.33)"/><path class="cls-9" d="M544.6,372.1c6.27,4.27,12.11,8.74,18.41,12.44,11.33,6.65,23.83,10.15,36.76,12.14,1.48.23,3,.48,4.43.8,3.12.7,7,.74,7.91,4.56,1.1,4.74.49,9.82-2.9,13.35-1.48,1.55-5.43,1.77-7.86,1.12a67.09,67.09,0,0,1-12.72-5.37c-12-6.11-23.66-13.06-36-18.35-6.55-2.81-9.07-6.13-8.08-12.85A53.93,53.93,0,0,0,544.6,372.1Z" transform="translate(-12.78 -29.33)"/><path class="cls-9" d="M572,220.82c4.9,1.52,9.05,3.34,13.39,4.05,9.57,1.56,19.26,2.41,28.86,3.84a149.16,149.16,0,0,1,17.14,3.5c3.07.83,5.42,3,5.38,6.8-.09,6.75-2.86,9.25-9.47,7.58-12.08-3.05-24.06-6.49-36.09-9.75-1.56-.43-3.14-.79-4.72-1.12-3.16-.65-7.63-.19-9.18-2.11C574.69,230.34,573.86,225.58,572,220.82Z" transform="translate(-12.78 -29.33)"/><path class="cls-9" d="M459.26,311.43h11.42c.08,1.32.2,2.42.2,3.52,0,13.61-.05,27.23.07,40.84,0,3-.73,4.21-4,4.16-7.73-.11-7.73,0-7.73-7.76Z" transform="translate(-12.78 -29.33)"/><path class="cls-9" d="M485,59.28H445.48a63.17,63.17,0,0,1,.13-8.63,4.28,4.28,0,0,1,2.65-2.92,72.93,72.93,0,0,1,34,0,4.36,4.36,0,0,1,2.53,3A64.15,64.15,0,0,1,485,59.28Z" transform="translate(-12.78 -29.33)"/><path class="cls-9" d="M498.6,153v6H435.87c-5.36,0-5.36,0-4.69-5.69,11.22-.77,22.49-2.11,33.77-2.16S487.26,152.28,498.6,153Z" transform="translate(-12.78 -29.33)"/><path class="cls-9" d="M552.49,288.41c-2.75-6.55-1.83-11.05,2.93-14.91,5.66-4.59,13.41-4.71,19.81-.3,4.84,3.33,6.17,9.49,3.71,17.21C566.06,281.34,563.92,281.16,552.49,288.41Z" transform="translate(-12.78 -29.33)"/><path class="cls-9" d="M377.7,287.49c-9.64-6.72-18.67-4.95-27.21,2.26-1.67-8.29.21-14.16,5.44-17.38,5.51-3.4,12.6-3.25,17.29.36S379.59,281.39,377.7,287.49Z" transform="translate(-12.78 -29.33)"/><path class="cls-9" d="M378.85,297.24c.6-1.79,1.1-3.62,1.83-5.36,5.35-12.75-2.28-25.66-15.37-26-11.62-.27-19.77,7.86-20.18,20a14.22,14.22,0,0,1-1.46,5.65,16.22,16.22,0,0,1,.14-16.4c7.83-14.3,29-16.48,39.67-4.14C389.5,278,387.38,293.73,378.85,297.24Z" transform="translate(-12.78 -29.33)"/><path class="cls-9" d="M551.18,297.84c-10.77-7.73-11.26-20.54-2.1-29.15,6.65-6.25,16.66-7.77,25.5-3.89,8.59,3.79,14.5,12,14.13,20.3-.09,2-1.41,3.86-2.16,5.79-.68-1.86-1.87-3.7-2-5.58-.39-8.51-3.51-15-12.07-17.91-8.08-2.76-15.27-1.43-21.37,4.68-4.85,4.84-4.9,10.63-3,16.72C549,291.49,550,294.16,551.18,297.84Z" transform="translate(-12.78 -29.33)"/><path class="cls-9" d="M536.59,414.52H472.9v-4.13h3.88c18.49,0,37,.07,55.48-.06C535.27,410.3,536.7,411.15,536.59,414.52Z" transform="translate(-12.78 -29.33)"/><path class="cls-9" d="M457,410.68c1,2.95.21,4.12-2.83,4.11-19.61-.08-39.23,0-58.84-.05a17.84,17.84,0,0,1-2-.23c.23-2.35.38-4.19,3.53-4.18,19.61.11,39.22.07,58.83.09A6.88,6.88,0,0,1,457,410.68Z" transform="translate(-12.78 -29.33)"/><path class="cls-9" d="M190.68,310.88c-6.08-5.29-13.44-4-19.92-5.61L144,298.51c2.13-5.47,6.07-8,10.22-5.91,9.52,4.78,19.63,7.66,29.69,10.84,2.33.73,4.31,2.83,6.22,4.56C190.71,308.52,190.52,309.9,190.68,310.88Z" transform="translate(-12.78 -29.33)"/><path class="cls-9" d="M246,197c1.24.13,2.79-.17,3.66.47a45.23,45.23,0,0,1,7.63,6.56,60.72,60.72,0,0,1,12.92,23.83c.75,2.74.53,5.75.75,8.63l-1.2.24-24.27-38.63Z" transform="translate(-12.78 -29.33)"/><path class="cls-9" d="M520.64,182.41c1.35,6.78,2.62,13.21,4,20.3l-30.92,2.71C502.71,197.06,515.34,194.51,520.64,182.41Z" transform="translate(-12.78 -29.33)"/><path class="cls-9" d="M329.39,91.63l-4.46-2,16.26-40.7,4.14,1.4C342.27,65,337.86,78.91,329.39,91.63Z" transform="translate(-12.78 -29.33)"/><path class="cls-9" d="M409.06,183.91c2,5.21,6.44,7.51,10.43,10.2a170.73,170.73,0,0,1,15.58,11.21l-29.39-2.48C406.85,196.28,408,190.1,409.06,183.91Z" transform="translate(-12.78 -29.33)"/><path class="cls-9" d="M656.24,213.09c.75,14.59,1.48,29,2.24,43.79l-4.44.4c-.68-4.41-1.55-8.54-1.93-12.72-.78-8.64-3.38-17.28-.74-26C652.11,216.15,651.94,212.05,656.24,213.09Z" transform="translate(-12.78 -29.33)"/><path class="cls-9" d="M761.91,164.94c7,15.68,18.15,26.27,33.66,32.62-2.82,3.53-6.17,3-9.06,1.27a102.66,102.66,0,0,1-15-10.39,50.6,50.6,0,0,1-9.23-11.56A11.55,11.55,0,0,1,761.91,164.94Z" transform="translate(-12.78 -29.33)"/><path class="cls-9" d="M504.12,356.8c-8.72,0-17.45.05-26.18-.07-1,0-2-1-3.07-1.53,1-.43,2-1.22,3-1.23q26.55-.11,53.11,0c1,0,2,1,3.07,1.52-1,.43-2,1.22-3,1.23C522.08,356.84,513.1,356.8,504.12,356.8Z" transform="translate(-12.78 -29.33)"/><path class="cls-9" d="M425.81,356.8c-8.72,0-17.45.05-26.17-.07-1.19,0-2.36-1-3.54-1.46,1.1-.45,2.2-1.29,3.3-1.29q26.37-.12,52.73,0c1.06,0,2.12.94,3.17,1.44-1.1.46-2.2,1.3-3.31,1.31C443.27,356.85,434.54,356.8,425.81,356.8Z" transform="translate(-12.78 -29.33)"/><path class="cls-9" d="M503.36,221.45c7.9,1.79,15.82,3.48,23.66,5.47a5.08,5.08,0,0,1,2.83,3.1c.9,2.94,1.3,6,2.11,10.12l-29-18.08Z" transform="translate(-12.78 -29.33)"/><path class="cls-9" d="M426.54,222.13l-27.66,17.25c.75-4.21,1.25-7.6,2-10.92a3.18,3.18,0,0,1,2.12-1.7c7.75-1.85,15.52-3.57,23.29-5.33Z" transform="translate(-12.78 -29.33)"/><path class="cls-9" d="M187.37,50.44c1.59.8,2.63,1,3.08,1.61,7.68,10.6,11.3,22.7,12.8,35.6C198.11,75.62,193,63.59,187.37,50.44Z" transform="translate(-12.78 -29.33)"/><path class="cls-9" d="M629.39,394.69c4.93,13.5,6.73,26.84,0,40.69Z" transform="translate(-12.78 -29.33)"/><path class="cls-9" d="M552.07,310.94c-7.51-.71-10.32-5.43-8.67-13.66,2.46,1.57,5.11,3,7.47,4.88.77.6,1,2.11,1.15,3.24C552.2,307.22,552.07,309.08,552.07,310.94Z" transform="translate(-12.78 -29.33)"/><path class="cls-9" d="M378.23,310.31V302.9l8.49-4.75C388.09,305,385.43,309.25,378.23,310.31Z" transform="translate(-12.78 -29.33)"/><path class="cls-9" d="M493.82,192.57c5.7-9.95,5.7-9.95,6.19-16.15,2.3,2.76,4.31,5.17,6.61,8Z" transform="translate(-12.78 -29.33)"/><path class="cls-9" d="M582.87,294.56l5.68.5a75.66,75.66,0,0,1-1.6,7.85c-.22.72-1.66,1.38-2.59,1.45-.44,0-1.35-1.38-1.42-2.19C582.75,299.73,582.87,297.25,582.87,294.56Z" transform="translate(-12.78 -29.33)"/><path class="cls-9" d="M346,295.62a67.11,67.11,0,0,1-.08,7c-.1.86-1.13,1.61-1.73,2.41-.86-.77-2.31-1.44-2.46-2.33a43.09,43.09,0,0,1-.12-6.87Z" transform="translate(-12.78 -29.33)"/><path class="cls-9" d="M396.82,228.57q-1.94,10.17-3.86,20.34l-1-.19,4-20.64Z" transform="translate(-12.78 -29.33)"/><path class="cls-9" d="M535,229.79l3.82,20-.9.17q-1.92-10-3.83-20Z" transform="translate(-12.78 -29.33)"/><path class="cls-9" d="M384.72,265.62l-14.23-6.86C375.9,259.22,380.78,260.34,384.72,265.62Z" transform="translate(-12.78 -29.33)"/><path class="cls-9" d="M544.56,266.36c3.32-4.89,8.27-6.46,13.59-7.66Z" transform="translate(-12.78 -29.33)"/><path d="M465.74,283.85c-6.44-15.32-12.56-29.8-18.56-44.33-.45-1.09-.6-2.88,0-3.72,5.46-7.73,11.11-15.33,17-23.39,5.33,6.14,10.13,12.21,15.52,17.68,3.69,3.75,4,7,2,11.81-5.13,12.6-9.61,25.46-14.36,38.21C467,281.13,466.5,282.1,465.74,283.85Zm-1.24-65c-3.94,5.29-7.45,10.27-11.26,15-2.21,2.77-2.52,5.21-.8,8.4,1.88,3.5,3.15,7.32,4.7,11,2.71,6.39,5.43,12.77,8.19,19.28.46-.42.73-.55.81-.76,4.25-11.31,8.53-22.61,12.65-34a4,4,0,0,0-.81-3.24C473.69,229.36,469.24,224.31,464.5,218.82Z" transform="translate(-12.78 -29.33)"/><path d="M453.57,215c-4.89,7.2-9.62,14.51-14.73,21.54-2.11,2.89-2.38,5.17-.67,8.36,5.54,10.32,10.78,20.79,16.12,31.21a2.75,2.75,0,0,1,.24,2.28l-37.66-40.84,36.08-23Zm-15.95,39.17.61-.61c-1.84-3.66-3.83-7.25-5.42-11a5.48,5.48,0,0,1,.23-4.26c1.78-3.15,4-6.07,6-9.08l-.69-.62L423,238.35Z" transform="translate(-12.78 -29.33)"/><path d="M474.38,278c5.78-11.31,11.48-22.67,17.41-33.91,1.35-2.58,1.19-4.39-.47-6.73a259.47,259.47,0,0,1-14.7-22.82l36.1,23-37.79,41Zm16.55-49.62-.49.66c2,3,3.9,6.05,6,8.93a4.06,4.06,0,0,1,.27,5c-2,3.51-3.65,7.18-5.46,10.79l.65.38,14.59-15.85Z" transform="translate(-12.78 -29.33)"/><path d="M471.32,171.08c4.35,5.53,8.22,10.35,11.93,15.28a2.7,2.7,0,0,1-.13,2.54c-5.81,7.15-11.73,14.21-17.93,21.68-1.76-1.9-3.38-3.54-4.9-5.28-4.18-4.78-8.23-9.69-12.53-14.37-2.06-2.24-2.74-3.93-.49-6.6,3.35-4,6.25-8.34,9.91-12.82-.48,6.3,1.36,10.43,8.21,10C471.7,181.14,471.13,176.23,471.32,171.08Zm2.84,10.13,0,1.19c-3.28,1-6.56,2.84-9.84,2.81s-6.61-1.88-10.36-3.07c-.94,1.29-2.32,3.16-3.88,5.28L465,204.59c4.57-5.55,8.87-10.69,13-15.93a2.73,2.73,0,0,0,0-2.53A60.73,60.73,0,0,0,474.16,181.21Z" transform="translate(-12.78 -29.33)"/><path d="M434.58,162.92c-.09,3.8.38,7.72-.38,11.38-1.29,6.12.55,10.66,4.72,15.09a249.43,249.43,0,0,1,17.42,21l-39.34-25c5.17-6.27,10.23-12.34,15.21-18.47a31.53,31.53,0,0,0,2.37-4ZM423,184.4l12.28,7.8c-1.28-2.67-3.46-4.67-4.5-7.15s-.89-5.32-1.32-8.43Z" transform="translate(-12.78 -29.33)"/><path d="M428.29,73.27c6.51,5.42,13.16,10.62,19.4,16.26,4.6,4.16,8.64,8.94,13,13.4,1.64,1.69,1.85,3.45.52,5.35-3.2,4.57-5.91,9.63-9.77,13.55-7.27,7.39-15.45,6.63-22.37-1.14a28.33,28.33,0,0,1-7.12-16.92C421,92.8,424,82.6,428.29,73.27ZM432,83.5c-.68,1.12-1.31,2-1.81,3-6.08,11.66-4.15,25.05,4.68,32.58,4.52,3.85,9.61,4.19,13.77,0,3.11-3.12,5.39-7.09,7.88-10.79a3.05,3.05,0,0,0,0-2.73C450.39,96.08,442.61,88.4,432,83.5Z" transform="translate(-12.78 -29.33)"/><path d="M501.74,73.09c5.13,12.58,9.47,25.4,4.21,39-1.67,4.33-5,8.32-8.44,11.59-4.64,4.44-10.91,4.31-16.19.56-6.19-4.4-10.06-10.67-13.1-17.43-.42-.93.34-3,1.21-3.81,7.75-7.54,15.63-15,23.53-22.34C495.65,78.13,498.54,75.83,501.74,73.09ZM498,83.68c-6.87,2.83-12.8,7.33-19.06,14.44-7.25,8.23-7.22,10.78.24,19,5.89,6.51,12.41,6.42,18.16-.25C505.14,107.83,505.47,94.67,498,83.68Z" transform="translate(-12.78 -29.33)"/><path d="M816.09,141.42c-1.45,10.21-3.13,21.57-8.89,31.79-3.93,7-9.71,9.06-16.28,6.16-5.4-2.39-8.31-6.92-6.19-12.37,4.26-11,9.13-21.81,14.35-32.4,2.38-4.83,6.14-5.81,10.32-4.4C814.09,131.78,816.18,134.91,816.09,141.42Zm-4-1c.12-3.09-.84-5.35-4-6.45s-5,.92-6,3.1c-4.72,10.16-9.29,20.39-13.61,30.73-1.38,3.32.28,6,3.49,7.72,4.56,2.39,8.26,1.39,11.32-3.68C809.16,162.17,810.69,151.26,812.14,140.39Z" transform="translate(-12.78 -29.33)"/><path d="M173.47,336.26c0,4.49.13,9,0,13.47-.21,6.14-3.26,9.84-8.76,11-6.86,1.47-10.54-.8-11.88-7.7-1.67-8.55-3.23-17.14-4.59-25.75-1.4-8.89,2.14-13,11.13-13.14,2.11,0,4.24.06,6.36.22,5.46.41,7.56,2.57,7.76,8,.09,2.37,0,4.75,0,7.12s0,4.49,0,6.74Zm-3.84,0h-.43c.12-2.61.25-5.23.37-7.85.43-10,0-10.5-10.23-10.32-6.21.11-8.23,2.26-7.27,8.39q2,12.74,4.48,25.39c1.13,5.8,6.68,7.54,10.74,3.22,1.44-1.54,2.06-4.24,2.25-6.47C169.88,344.49,169.63,340.35,169.63,336.23Z" transform="translate(-12.78 -29.33)"/><path d="M185.41,85.69c-1.37,1.93-2.59,4.58-4.6,6.32-7.15,6.18-14.55,12.06-21.86,18-5.42,4.43-10.94,3.71-14.32-2.44-1.07-1.94-.83-5-.22-7.32.5-1.87,2.37-3.43,3.78-5,5.7-6.25,11.57-12.35,17.15-18.7,7.73-8.77,13.71-7.92,18.17,2.85C184.22,81.15,184.6,83,185.41,85.69Zm-4.15-.62c-.61-1.78-.93-3-1.42-4.12-3.46-8-6-8.31-11.61-1.5-3.25,3.93-6.49,7.89-9.94,11.65-3.1,3.39-6.51,6.5-9.71,9.82-2.09,2.16-1.5,4,.54,6.11,2.7,2.72,4.9,1.93,7.42-.16,7.27-6.05,14.65-12,21.89-18A19.66,19.66,0,0,0,181.26,85.07Z" transform="translate(-12.78 -29.33)"/><path d="M654,424.57c-4.89.09-7.08-1.67-7.78-5.27-.31-1.59-.64-3.18-.9-4.77-.84-5.37,1.61-9.47,7-10a55.38,55.38,0,0,0,25.07-8.79c4.14-2.63,6.86-2.12,8.66.43,4.19,5.94,4.35,10.24.35,13.66a21.52,21.52,0,0,1-4.66,3.08c-7.2,3.41-14.42,6.78-21.72,10A36.49,36.49,0,0,1,654,424.57Zm28.59-26.2c-.58,0-1-.14-1.29,0-9.06,5.36-18.52,9.51-29.21,10.46-1.07.09-2.33,2.52-2.77,4.07-.36,1.31.44,2.91.55,4.4.23,3,2.11,4.15,4.58,3.07q14.66-6.42,29-13.41c.87-.42,1.34-2.71,1.15-4C684.38,401.36,683.27,399.86,682.57,398.37Z" transform="translate(-12.78 -29.33)"/><path d="M227.18,52.11c7.48.44,15,1.4,22.44,1.23,12.83-.29,25.65-1.28,38.47-2,5.23-.29,10.48-1,15.7-.84,12.16.33,16.79,5.64,16.13,17.83C319.45,76.91,315,81.21,306.55,80c-7.13-1-14.16-3-21.15-4.8-16.61-4.39-32.95-2.24-49.26,1.63a111.19,111.19,0,0,1-13.91,2.79c-4.66.5-7.66-1.74-8.94-6.26a43.4,43.4,0,0,1-1.65-9.92c-.29-6.52,2.44-9.72,8.84-10.88,2.2-.39,4.45-.46,6.69-.68Zm2,4.91c-13.4-1.38-16.22,2.1-12.46,14.29,1.06,3.43,3.06,5.09,6.59,4.5a78.76,78.76,0,0,0,8-1.77C252.2,68.3,273,66.57,294,73.38a63.78,63.78,0,0,0,15.77,2.5c1.68.11,4.33-1.72,5.11-3.34,4.49-9.42-.37-17.36-10.68-18a30.35,30.35,0,0,0-4.47,0c-9.07.8-18.12,2.13-27.19,2.39C258.12,57.32,243.66,57,229.21,57Z" transform="translate(-12.78 -29.33)"/><path d="M249.35,224c-.77,1.4-1.78,4.69-3.92,6.84A76.85,76.85,0,0,1,233,240.93a129.82,129.82,0,0,0-28.42,25.29c-2.71,3.2-4.62,7.07-6.86,10.65-.53.85-.89,1.79-1.36,2.67-5.63,10.72-13.23,13.33-25.23,4.66-4.27-3.09-4.79-7.22-1.64-11.44a33.85,33.85,0,0,1,6.81-6.87c17.82-13.19,32.56-29.38,46.13-46.75a39.48,39.48,0,0,1,6.44-6.73c3.9-3.1,8.35-3.09,12.65-.73S249.37,216.73,249.35,224Zm-3.65-1.17a20.22,20.22,0,0,0-.77-3c-2.61-5.76-10.54-7.43-15.1-3.09a52.67,52.67,0,0,0-4.87,5.65c-13.45,17.15-28.1,33.1-45.64,46.22a42.13,42.13,0,0,0-6.63,6.52c-1.73,2-1.4,4.32.8,5.87,10,7.06,14.51,5.41,19.25-3.07,2.25-4,4.19-8.3,7-11.92a125.82,125.82,0,0,1,30.79-28.18,86.44,86.44,0,0,0,11.43-9C243.74,227.16,244.65,224.54,245.7,222.8Z" transform="translate(-12.78 -29.33)"/><path d="M681.64,247.29c-5.83-.2-10.52-3.7-11.67-8.9-1.22-5.55,1.09-10.41,6.69-12.72a174.2,174.2,0,0,1,19-6.84c18-5.08,34.79-13,51-22.26a39.35,39.35,0,0,1,8.56-3.7,18.35,18.35,0,0,1,7.36-.64,9.94,9.94,0,0,1,8.36,7.19c1.25,3.83-.67,7.12-3.74,9.05-5.36,3.37-10.83,6.78-16.69,9.09-16.49,6.51-32.94,13.05-48.35,21.95a112.23,112.23,0,0,1-13.93,6.35C686.15,246.69,683.83,246.83,681.64,247.29Zm1.85-4.2c1.91-.65,5.7-1.35,8.89-3.13,20-11.14,40.9-20.12,62.14-28.48a42.73,42.73,0,0,0,9.89-5.92c1.37-1,3-3.84,2.48-4.8a10.77,10.77,0,0,0-5.28-4.58c-1.62-.64-4-.09-5.79.62a92.94,92.94,0,0,0-11.44,5.46c-13.56,7.8-27.61,14.37-42.68,18.77-7.88,2.3-15.59,5.24-23.25,8.19-3.93,1.52-5.41,4.55-4.68,7.93C674.57,240.91,677.52,243.13,683.49,243.09Z" transform="translate(-12.78 -29.33)"/><path class="cls-9" d="M464.5,218.82c4.74,5.49,9.19,10.54,13.48,15.72a4,4,0,0,1,.81,3.24c-4.12,11.36-8.4,22.66-12.65,34-.08.21-.35.34-.81.76-2.76-6.51-5.48-12.89-8.19-19.28-1.55-3.67-2.82-7.49-4.7-11-1.72-3.19-1.41-5.63.8-8.4C457.05,229.09,460.56,224.11,464.5,218.82Z" transform="translate(-12.78 -29.33)"/><path class="cls-9" d="M437.62,254.19,423,238.35l15.34-9.74.69.62c-2,3-4.24,5.93-6,9.08a5.48,5.48,0,0,0-.23,4.26c1.59,3.76,3.58,7.35,5.42,11Z" transform="translate(-12.78 -29.33)"/><path class="cls-9" d="M490.93,228.4l15.6,10-14.59,15.85-.65-.38c1.81-3.61,3.5-7.28,5.46-10.79a4.06,4.06,0,0,0-.27-5c-2.14-2.88-4-6-6-8.93Z" transform="translate(-12.78 -29.33)"/><path class="cls-9" d="M474.16,181.21a60.73,60.73,0,0,1,3.88,4.92,2.73,2.73,0,0,1,0,2.53c-4.16,5.24-8.46,10.38-13,15.93l-14.9-17.17c1.56-2.12,2.94-4,3.88-5.28,3.75,1.19,7.05,3.05,10.36,3.07s6.56-1.8,9.84-2.81Z" transform="translate(-12.78 -29.33)"/><path class="cls-9" d="M423,184.4l6.46-7.78c.43,3.11.29,6,1.32,8.43s3.22,4.48,4.5,7.15Z" transform="translate(-12.78 -29.33)"/><path class="cls-9" d="M432,83.5c10.63,4.9,18.41,12.58,24.55,22.08a3.05,3.05,0,0,1,0,2.73c-2.49,3.7-4.77,7.67-7.88,10.79-4.16,4.16-9.25,3.82-13.77,0-8.83-7.53-10.76-20.92-4.68-32.58C430.67,85.52,431.3,84.62,432,83.5Z" transform="translate(-12.78 -29.33)"/><path class="cls-9" d="M498,83.68c7.48,11,7.15,24.15-.66,33.22-5.75,6.67-12.27,6.76-18.16.25-7.46-8.25-7.49-10.8-.24-19C485.19,91,491.12,86.51,498,83.68Z" transform="translate(-12.78 -29.33)"/><path class="cls-9" d="M812.14,140.39c-1.45,10.87-3,21.78-8.81,31.42-3.06,5.07-6.76,6.07-11.32,3.68-3.21-1.7-4.87-4.4-3.49-7.72,4.32-10.34,8.89-20.57,13.61-30.73,1-2.18,2.8-4.2,6-3.1S812.26,137.3,812.14,140.39Z" transform="translate(-12.78 -29.33)"/><path class="cls-9" d="M169.63,336.23c0,4.12.25,8.26-.09,12.35-.19,2.23-.81,4.93-2.25,6.47-4.06,4.32-9.61,2.58-10.74-3.22q-2.48-12.65-4.48-25.39c-1-6.13,1.06-8.28,7.27-8.39,10.19-.18,10.66.29,10.23,10.32-.12,2.62-.25,5.24-.37,7.85Z" transform="translate(-12.78 -29.33)"/><path class="cls-9" d="M181.26,85.07a19.66,19.66,0,0,1-2.83,3.77c-7.24,6.07-14.62,12-21.89,18-2.52,2.09-4.72,2.88-7.42.16-2-2.06-2.63-4-.54-6.11,3.2-3.32,6.61-6.43,9.71-9.82,3.45-3.76,6.69-7.72,9.94-11.65,5.64-6.81,8.15-6.51,11.61,1.5C180.33,82.08,180.65,83.29,181.26,85.07Z" transform="translate(-12.78 -29.33)"/><path class="cls-9" d="M682.57,398.37c.7,1.49,1.81,3,2,4.61.19,1.29-.28,3.58-1.15,4q-14.38,7-29,13.41c-2.47,1.08-4.35,0-4.58-3.07-.11-1.49-.91-3.09-.55-4.4.44-1.55,1.7-4,2.77-4.07,10.69-1,20.15-5.1,29.21-10.46C681.55,398.23,682,398.37,682.57,398.37Z" transform="translate(-12.78 -29.33)"/><path class="cls-9" d="M229.21,57c14.45,0,28.91.3,43.35-.11,9.07-.26,18.12-1.59,27.19-2.39a30.35,30.35,0,0,1,4.47,0c10.31.61,15.17,8.55,10.68,18-.78,1.62-3.43,3.45-5.11,3.34A63.78,63.78,0,0,1,294,73.38c-21-6.81-41.82-5.08-62.65.66a78.76,78.76,0,0,1-8,1.77c-3.53.59-5.53-1.07-6.59-4.5C213,59.12,215.81,55.64,229.21,57Z" transform="translate(-12.78 -29.33)"/><path class="cls-9" d="M245.7,222.8c-1,1.74-2,4.36-3.76,6a86.44,86.44,0,0,1-11.43,9A125.82,125.82,0,0,0,199.72,266c-2.79,3.62-4.73,7.9-7,11.92-4.74,8.48-9.28,10.13-19.25,3.07-2.2-1.55-2.53-3.84-.8-5.87a42.13,42.13,0,0,1,6.63-6.52c17.54-13.12,32.19-29.07,45.64-46.22a52.67,52.67,0,0,1,4.87-5.65c4.56-4.34,12.49-2.67,15.1,3.09A20.22,20.22,0,0,1,245.7,222.8Z" transform="translate(-12.78 -29.33)"/><path class="cls-9" d="M683.49,243.09c-6,0-8.92-2.18-9.72-5.94-.73-3.38.75-6.41,4.68-7.93,7.66-2.95,15.37-5.89,23.25-8.19,15.07-4.4,29.12-11,42.68-18.77a92.94,92.94,0,0,1,11.44-5.46c1.78-.71,4.17-1.26,5.79-.62a10.77,10.77,0,0,1,5.28,4.58c.5,1-1.11,3.76-2.48,4.8a42.73,42.73,0,0,1-9.89,5.92c-21.24,8.36-42.17,17.34-62.14,28.48C689.19,241.74,685.4,242.44,683.49,243.09Z" transform="translate(-12.78 -29.33)"/></g></svg>